<?xml version="1.0" encoding="UTF-8"?>
<svg id="Layer_2" data-name="Layer 2" xmlns="http://www.w3.org/2000/svg" viewBox="0 0 498.25 117.9">
  <defs>
    <style>
      .cls-1 {
        fill: #263143;
      }

      .cls-1, .cls-2 {
        stroke-width: 0px;
      }

      .cls-2 {
        fill: #4cab37;
      }
    </style>
  </defs>
  <g id="Layer_1-2" data-name="Layer 1">
    <g>
      <path class="cls-1" d="M481.32,8.56v-.05c0-4.61,3.72-8.51,8.49-8.51s8.44,3.88,8.44,8.46v.05c0,4.61-3.72,8.51-8.49,8.51s-8.44-3.88-8.44-8.46ZM497.27,8.51v-.05c0-4.14-3.23-7.53-7.46-7.53s-7.51,3.44-7.51,7.57v.05c0,4.12,3.2,7.51,7.46,7.51s7.5-3.41,7.5-7.55ZM485.2,8.44v-.05c0-2.53,1.96-4.65,4.77-4.65,1.87,0,2.97.72,3.79,1.85l-1.89,1.47c-.49-.63-1.1-1.05-1.94-1.05-1.29,0-2.13,1.05-2.13,2.36v.05c0,1.31.84,2.34,2.13,2.34.93,0,1.47-.44,2.01-1.08l1.89,1.36c-.86,1.19-1.99,2.01-3.93,2.01-2.71,0-4.7-1.99-4.7-4.61Z"/>
      <path class="cls-1" d="M153.98,63.29c-6.31-6.14-9.42-14.01-9.42-23.6s3.2-17.64,9.59-23.86c6.49-6.31,14.27-9.42,23.43-9.42,11.49,0,21.87,5.28,27.48,13.23l-8.56,8.38c-5.01-6.14-11.06-9.25-18.24-9.25-5.79,0-10.64,1.98-14.52,5.96-3.89,3.89-5.88,8.9-5.88,14.96s1.9,10.72,5.79,14.6c3.89,3.89,8.73,5.79,14.53,5.79,7.43,0,13.65-3.11,18.58-9.33l8.82,8.04c-5.88,8.04-16.34,13.57-28.18,13.57-9.25,0-17.12-3.03-23.42-9.07Z"/>
      <path class="cls-1" d="M248.15,24.31h11.58v47.11h-11.58v-5.45c-4.07,4.41-9.08,6.57-15.04,6.57-6.74,0-12.36-2.34-16.77-7.09-4.41-4.76-6.57-10.72-6.57-17.81s2.25-12.97,6.65-17.55c4.41-4.67,10.03-7,16.69-7,5.88,0,10.89,2.25,15.04,6.83v-5.62ZM244.52,38.22c-2.51-2.68-5.62-3.98-9.42-3.98s-7,1.3-9.51,3.98c-2.42,2.68-3.63,5.88-3.63,9.59s1.21,7,3.72,9.68c2.51,2.67,5.62,3.98,9.42,3.98s6.92-1.3,9.42-3.98c2.51-2.68,3.8-5.88,3.8-9.68s-1.3-6.91-3.8-9.59Z"/>
      <path class="cls-1" d="M270.74,71.42V24.31h11.67v6.31c2.85-5.1,7.17-7.61,12.96-7.61,1.9,0,3.81.35,5.71,1.04l-1.04,11.67c-1.98-.61-3.89-.95-5.62-.95-6.91,0-11.49,4.49-11.49,14.26v22.39h-12.19Z"/>
      <path class="cls-1" d="M344.67,68.65c-3.89,2.59-8.47,3.89-13.91,3.89-10.81,0-16.43-6.4-16.43-18.59v-19.45h-7.69v-10.2h7.78V7.62h12.11v16.69h15.55v10.2h-15.55v18.67c0,5.53,2.25,8.3,6.65,8.3,2.34,0,5.02-.78,7.87-2.42l3.63,9.59Z"/>
      <path class="cls-1" d="M364.4,71.42h-12.19V5.72h12.19v65.7Z"/>
      <path class="cls-1" d="M378.24,30.27c4.75-4.84,10.8-7.26,18.15-7.26s13.4,2.42,18.15,7.26c4.75,4.76,7.09,10.64,7.09,17.55s-2.34,12.88-7.09,17.64c-4.75,4.75-10.8,7.17-18.15,7.17s-13.4-2.42-18.15-7.17c-4.76-4.76-7.09-10.64-7.09-17.64s2.33-12.79,7.09-17.55ZM396.4,61.3c3.72,0,6.74-1.3,9.25-3.89,2.51-2.67,3.8-5.88,3.8-9.59s-1.3-6.91-3.8-9.51c-2.51-2.59-5.53-3.89-9.25-3.89s-6.83,1.3-9.33,3.89c-2.51,2.6-3.72,5.79-3.72,9.51s1.2,6.92,3.72,9.59c2.51,2.6,5.62,3.89,9.33,3.89Z"/>
      <path class="cls-1" d="M439.99,71.33l-16.08-47.02h12.8l9.42,30.86,10.63-30.86h8.56l10.98,30.86,9.16-30.86h12.79l-15.91,47.02h-10.63l-10.64-29.48-10.46,29.48h-10.63Z"/>
      <g>
        <path class="cls-1" d="M86.16,58.95c0-15.03-12.18-27.21-27.21-27.21s-27.21,12.18-27.21,27.21h54.41Z"/>
        <path class="cls-2" d="M82.03,97.98l-23.08-9.55,8.68,15.03,7.09,12.29c8.23-2.28,15.75-6.3,22.11-11.64l-14.8-6.13Z"/>
        <path class="cls-2" d="M58.95,0C26.39,0,0,26.39,0,58.95s26.39,58.95,58.95,58.95c5.47,0,10.75-.76,15.77-2.15l-7.09-12.29c-2.81.55-5.71.84-8.68.84-25.04,0-45.35-20.3-45.35-45.35S33.91,13.6,58.95,13.6s45.35,20.3,45.35,45.35h13.6c0-32.56-26.39-58.95-58.95-58.95Z"/>
      </g>
    </g>
    <g>
      <path class="cls-2" d="M153.88,112.71c-3.14,0-5.85-1.04-8.13-3.11l2.07-2.45c.98.85,1.96,1.49,2.93,1.9.97.42,2.05.62,3.21.62,1.05,0,1.89-.23,2.51-.68.62-.45.94-1.04.94-1.77v-.05c0-.48-.11-.88-.33-1.21-.22-.33-.66-.64-1.31-.93s-1.57-.57-2.75-.84c-1.11-.26-2.04-.54-2.79-.83-.74-.29-1.41-.66-2-1.1-.59-.44-1.02-.99-1.3-1.62-.28-.64-.41-1.39-.41-2.26v-.05c0-1.67.62-3.03,1.87-4.08,1.25-1.05,2.84-1.58,4.79-1.58,2.66,0,5.02.82,7.07,2.45l-1.83,2.6c-1.83-1.34-3.59-2.01-5.29-2.01-.98,0-1.75.22-2.32.65-.57.44-.86.99-.86,1.66v.05c0,.53.13.95.39,1.29.26.33.72.64,1.37.92.66.28,1.62.57,2.89.87,2.17.56,3.76,1.26,4.75,2.1.99.84,1.49,2.04,1.49,3.6v.05c0,1.8-.64,3.22-1.92,4.26-1.28,1.04-2.96,1.56-5.04,1.56Z"/>
      <path class="cls-2" d="M163.17,112.44v-14.69h3.38v2.22c.56-.78,1.19-1.4,1.9-1.85.7-.45,1.56-.68,2.59-.68s1.93.23,2.68.69,1.33,1.1,1.73,1.9c1.32-1.73,2.97-2.6,4.95-2.6,1.62,0,2.89.49,3.79,1.47s1.36,2.37,1.36,4.15v9.38h-3.37v-8.35c0-1.16-.26-2.05-.77-2.67-.52-.62-1.25-.93-2.2-.93s-1.71.32-2.28.96c-.57.64-.86,1.54-.86,2.7v8.29h-3.37v-8.37c0-1.15-.26-2.04-.77-2.65s-1.25-.92-2.2-.92-1.72.33-2.29.99c-.58.66-.86,1.55-.86,2.67v8.29h-3.38Z"/>
      <path class="cls-2" d="M192.56,112.75c-.94,0-1.8-.17-2.58-.5s-1.42-.85-1.91-1.56c-.49-.7-.74-1.53-.74-2.48v-.05c0-1.56.55-2.74,1.65-3.54,1.1-.8,2.58-1.2,4.44-1.2,1.34,0,2.66.21,3.96.63v-.37c0-1.05-.31-1.85-.93-2.39-.62-.54-1.52-.82-2.71-.82-1.32,0-2.72.31-4.2.92l-.92-2.65c.93-.4,1.83-.7,2.68-.9.85-.2,1.82-.3,2.9-.3,2.17,0,3.8.55,4.87,1.65,1.06,1.06,1.59,2.57,1.59,4.54v8.71h-3.29v-1.83c-1.21,1.43-2.8,2.15-4.78,2.15ZM193.51,110.29c1.13,0,2.07-.29,2.81-.87s1.11-1.34,1.11-2.27v-1.01c-.98-.39-2.09-.58-3.33-.58-1.11,0-1.96.21-2.56.64s-.9,1.03-.9,1.81v.05c0,.69.27,1.23.8,1.63.53.4,1.22.6,2.07.6Z"/>
      <path class="cls-2" d="M203.38,112.44v-14.69h3.38v3.3c.48-1.17,1.16-2.07,2.03-2.71.87-.64,1.93-.93,3.17-.88v3.56h-.19c-1.54,0-2.76.5-3.66,1.49s-1.35,2.44-1.35,4.33v5.6h-3.38Z"/>
      <path class="cls-2" d="M218.84,112.68c-2.82,0-4.23-1.44-4.23-4.31v-7.73h-1.86v-2.9h1.86v-4.04h3.37v4.04h3.94v2.9h-3.94v7.2c0,1.22.6,1.83,1.81,1.83.73,0,1.42-.17,2.08-.5v2.76c-.9.5-1.91.75-3.03.75Z"/>
      <path class="cls-2" d="M230.21,112.78c-1.4,0-2.68-.32-3.82-.95-1.14-.63-2.05-1.54-2.72-2.71-.67-1.17-1.01-2.5-1.01-3.98v-.05c0-1.4.3-2.68.91-3.85.61-1.17,1.46-2.09,2.57-2.78s2.34-1.03,3.71-1.03c.92,0,1.76.14,2.53.41.77.28,1.43.66,1.98,1.15s1.01,1.07,1.4,1.73.67,1.39.86,2.17.28,1.59.28,2.45c0,.17-.02.49-.05.94h-10.81c.18,1.19.65,2.11,1.41,2.76.76.65,1.7.98,2.82.98.81,0,1.51-.14,2.12-.43.61-.29,1.23-.73,1.86-1.33l1.98,1.75c-1.56,1.84-3.57,2.76-6.02,2.76ZM226.01,104.07h7.54c-.12-1.13-.5-2.06-1.15-2.79-.65-.72-1.51-1.09-2.58-1.09s-1.89.35-2.56,1.05c-.68.7-1.09,1.64-1.26,2.82Z"/>
      <path class="cls-2" d="M238.94,112.44v-14.69h3.38v3.3c.48-1.17,1.16-2.07,2.03-2.71.87-.64,1.93-.93,3.17-.88v3.56h-.19c-1.54,0-2.76.5-3.66,1.49s-1.35,2.44-1.35,4.33v5.6h-3.38Z"/>
      <path class="cls-2" d="M261.94,112.58l-6.76-19.63h3.7l4.65,14.45,4.79-14.5h2.9l4.8,14.5,4.65-14.45h3.59l-6.77,19.63h-2.98l-4.78-14-4.78,14h-2.99Z"/>
      <path class="cls-2" d="M289.02,112.75c-.94,0-1.8-.17-2.58-.5s-1.42-.85-1.91-1.56c-.49-.7-.74-1.53-.74-2.48v-.05c0-1.56.55-2.74,1.65-3.54,1.1-.8,2.58-1.2,4.44-1.2,1.34,0,2.66.21,3.96.63v-.37c0-1.05-.31-1.85-.93-2.39-.62-.54-1.52-.82-2.71-.82-1.32,0-2.72.31-4.2.92l-.92-2.65c.93-.4,1.83-.7,2.68-.9.85-.2,1.82-.3,2.9-.3,2.17,0,3.8.55,4.87,1.65,1.06,1.06,1.59,2.57,1.59,4.54v8.71h-3.29v-1.83c-1.21,1.43-2.8,2.15-4.78,2.15ZM289.97,110.29c1.13,0,2.07-.29,2.81-.87s1.11-1.34,1.11-2.27v-1.01c-.98-.39-2.09-.58-3.33-.58-1.11,0-1.96.21-2.56.64s-.9,1.03-.9,1.81v.05c0,.69.27,1.23.8,1.63.53.4,1.22.6,2.07.6Z"/>
      <path class="cls-2" d="M305.31,108.65l3.83-10.9h3.51l-5.85,15.09c-.6,1.52-1.26,2.59-1.98,3.21-.73.62-1.68.93-2.85.93s-2.39-.31-3.48-.92l1.14-2.47c.7.37,1.35.56,1.97.56.49,0,.89-.12,1.2-.37.31-.25.61-.68.89-1.3l-6.13-14.72h3.62l4.13,10.9Z"/>
      <path class="cls-2" d="M326.3,112.68c-2.82,0-4.23-1.44-4.23-4.31v-7.73h-1.86v-2.9h1.86v-4.04h3.37v4.04h3.94v2.9h-3.94v7.2c0,1.22.6,1.83,1.81,1.83.73,0,1.42-.17,2.08-.5v2.76c-.9.5-1.91.75-3.03.75Z"/>
      <path class="cls-2" d="M337.92,112.78c-1.1,0-2.13-.2-3.11-.6-.97-.4-1.8-.95-2.49-1.63-.68-.68-1.22-1.49-1.62-2.43-.39-.93-.59-1.92-.59-2.95v-.05c0-1.39.34-2.67,1.01-3.84.67-1.17,1.62-2.11,2.83-2.8s2.55-1.04,4.02-1.04,2.82.34,4.02,1.03c1.2.68,2.13,1.61,2.8,2.77.67,1.17,1,2.44,1,3.83v.05c0,1.02-.2,2.01-.6,2.94-.4.94-.94,1.75-1.63,2.45-.69.69-1.52,1.25-2.51,1.66-.98.41-2.03.62-3.13.62ZM337.97,109.82c1.34,0,2.42-.45,3.23-1.35.81-.9,1.22-2,1.22-3.3v-.05c0-1.31-.42-2.43-1.27-3.35-.85-.92-1.92-1.38-3.23-1.38s-2.39.45-3.21,1.35c-.82.9-1.22,2.01-1.22,3.32v.05c0,1.3.43,2.4,1.28,3.32.86.92,1.92,1.38,3.2,1.38Z"/>
      <path class="cls-2" d="M362.26,112.71c-3.14,0-5.85-1.04-8.13-3.11l2.07-2.45c.98.85,1.96,1.49,2.93,1.9.97.42,2.05.62,3.21.62,1.05,0,1.89-.23,2.51-.68.62-.45.94-1.04.94-1.77v-.05c0-.48-.11-.88-.33-1.21-.22-.33-.66-.64-1.31-.93s-1.57-.57-2.75-.84c-1.11-.26-2.04-.54-2.79-.83-.74-.29-1.41-.66-2-1.1-.59-.44-1.02-.99-1.3-1.62-.28-.64-.41-1.39-.41-2.26v-.05c0-1.67.62-3.03,1.87-4.08,1.25-1.05,2.84-1.58,4.79-1.58,2.66,0,5.02.82,7.07,2.45l-1.83,2.6c-1.83-1.34-3.59-2.01-5.29-2.01-.98,0-1.75.22-2.32.65-.57.44-.86.99-.86,1.66v.05c0,.53.13.95.39,1.29.26.33.72.64,1.37.92.66.28,1.62.57,2.89.87,2.17.56,3.76,1.26,4.75,2.1.99.84,1.49,2.04,1.49,3.6v.05c0,1.8-.64,3.22-1.92,4.26-1.28,1.04-2.96,1.56-5.04,1.56Z"/>
      <path class="cls-2" d="M371.54,112.44v-20.32h3.38v7.88c.57-.8,1.21-1.42,1.93-1.88s1.6-.69,2.66-.69c1.65,0,2.93.5,3.85,1.52.92,1.01,1.38,2.38,1.38,4.11v9.38h-3.36v-8.35c0-1.15-.27-2.04-.82-2.66-.55-.62-1.33-.94-2.33-.94s-1.8.32-2.41.97c-.61.65-.91,1.54-.91,2.68v8.29h-3.38Z"/>
      <path class="cls-2" d="M394.45,112.78c-1.1,0-2.13-.2-3.11-.6-.97-.4-1.8-.95-2.49-1.63-.68-.68-1.22-1.49-1.62-2.43-.39-.93-.59-1.92-.59-2.95v-.05c0-1.39.34-2.67,1.01-3.84.67-1.17,1.62-2.11,2.83-2.8s2.55-1.04,4.02-1.04,2.82.34,4.02,1.03c1.2.68,2.13,1.61,2.8,2.77.67,1.17,1,2.44,1,3.83v.05c0,1.02-.2,2.01-.6,2.94-.4.94-.94,1.75-1.63,2.45-.69.69-1.52,1.25-2.51,1.66-.98.41-2.03.62-3.13.62ZM394.5,109.82c1.34,0,2.42-.45,3.23-1.35.81-.9,1.22-2,1.22-3.3v-.05c0-1.31-.42-2.43-1.27-3.35-.85-.92-1.92-1.38-3.23-1.38s-2.39.45-3.21,1.35c-.82.9-1.22,2.01-1.22,3.32v.05c0,1.3.43,2.4,1.28,3.32.86.92,1.92,1.38,3.2,1.38Z"/>
      <path class="cls-2" d="M404.38,116.9v-19.15h3.38v2.45c1.31-1.84,2.98-2.76,5.02-2.76.87,0,1.71.17,2.52.52s1.54.83,2.18,1.45c.64.63,1.16,1.43,1.54,2.41.38.98.58,2.06.58,3.25v.05c0,1.19-.19,2.27-.58,3.25-.39.98-.9,1.78-1.54,2.41-.64.63-1.36,1.12-2.17,1.46-.81.34-1.66.52-2.54.52-2.03,0-3.7-.87-5.02-2.6v6.74h-3.38ZM408.94,108.5c.84.88,1.85,1.32,3.04,1.32s2.18-.43,2.99-1.29c.81-.86,1.21-2,1.21-3.41v-.05c0-1.39-.41-2.52-1.23-3.39-.82-.88-1.81-1.31-2.97-1.31s-2.2.44-3.04,1.32-1.26,2.01-1.26,3.38v.05c0,1.38.42,2.51,1.26,3.38Z"/>
      <path class="cls-2" d="M442.82,112.83l-2.6-2.65c-1.8,1.69-3.79,2.53-5.95,2.53-1.85,0-3.38-.51-4.59-1.54-1.21-1.02-1.81-2.36-1.81-4.02v-.05c0-2.46,1.39-4.28,4.17-5.44-.56-.72-.97-1.41-1.23-2.05s-.39-1.31-.39-2.01v-.05c0-1.37.51-2.53,1.54-3.49,1.03-.96,2.38-1.43,4.06-1.43,1.52,0,2.77.45,3.73,1.35.96.9,1.45,2.02,1.45,3.35v.05c0,2.29-1.43,3.98-4.3,5.07l3.34,3.4c.72-1.08,1.42-2.33,2.09-3.77l2.58,1.36c-.91,1.82-1.79,3.3-2.64,4.43l3.09,3.13-2.56,1.83ZM434.59,109.88c1.3,0,2.52-.57,3.68-1.7l-4.35-4.43c-.87.37-1.52.84-1.94,1.41-.43.57-.64,1.18-.64,1.83v.05c0,.83.3,1.52.91,2.05.61.53,1.39.79,2.34.79ZM435.1,100.61c1.04-.39,1.81-.82,2.32-1.3s.75-1.06.75-1.75v-.05c0-.65-.2-1.18-.61-1.59-.41-.41-.94-.61-1.59-.61-.7,0-1.26.22-1.69.67-.43.44-.65,1.01-.65,1.69v.05c0,.49.11.94.32,1.36s.6.93,1.15,1.54Z"/>
      <path class="cls-2" d="M461.34,112.71c-3.14,0-5.85-1.04-8.13-3.11l2.07-2.45c.98.85,1.96,1.49,2.93,1.9.97.42,2.05.62,3.21.62,1.05,0,1.89-.23,2.51-.68.62-.45.94-1.04.94-1.77v-.05c0-.48-.11-.88-.33-1.21-.22-.33-.66-.64-1.31-.93s-1.57-.57-2.75-.84c-1.11-.26-2.04-.54-2.79-.83-.74-.29-1.41-.66-2-1.1-.59-.44-1.02-.99-1.3-1.62-.28-.64-.41-1.39-.41-2.26v-.05c0-1.67.62-3.03,1.87-4.08,1.25-1.05,2.84-1.58,4.79-1.58,2.66,0,5.02.82,7.07,2.45l-1.83,2.6c-1.83-1.34-3.59-2.01-5.29-2.01-.98,0-1.75.22-2.32.65-.57.44-.86.99-.86,1.66v.05c0,.53.13.95.39,1.29.26.33.72.64,1.37.92.66.28,1.62.57,2.89.87,2.17.56,3.76,1.26,4.75,2.1.99.84,1.49,2.04,1.49,3.6v.05c0,1.8-.64,3.22-1.92,4.26-1.28,1.04-2.96,1.56-5.04,1.56Z"/>
      <path class="cls-2" d="M477.32,112.78c-1.4,0-2.68-.32-3.82-.95-1.14-.63-2.05-1.54-2.72-2.71-.67-1.17-1.01-2.5-1.01-3.98v-.05c0-1.4.3-2.68.91-3.85.61-1.17,1.46-2.09,2.57-2.78s2.34-1.03,3.71-1.03c.92,0,1.76.14,2.53.41.77.28,1.43.66,1.98,1.15s1.01,1.07,1.4,1.73.67,1.39.86,2.17.28,1.59.28,2.45c0,.17-.02.49-.05.94h-10.81c.18,1.19.65,2.11,1.41,2.76.76.65,1.7.98,2.82.98.81,0,1.51-.14,2.12-.43.61-.29,1.23-.73,1.86-1.33l1.98,1.75c-1.56,1.84-3.57,2.76-6.02,2.76ZM473.12,104.07h7.54c-.12-1.13-.5-2.06-1.15-2.79-.65-.72-1.51-1.09-2.58-1.09s-1.89.35-2.56,1.05c-.68.7-1.09,1.64-1.26,2.82Z"/>
      <path class="cls-2" d="M486.14,112.44v-20.32h3.4v20.32h-3.4Z"/>
      <path class="cls-2" d="M492.57,112.44v-20.32h3.4v20.32h-3.4Z"/>
    </g>
  </g>
</svg>